<?xml version="1.0" encoding="UTF-8" standalone="no"?>
<!DOCTYPE svg PUBLIC "-//W3C//DTD SVG 1.1//EN" "http://www.w3.org/Graphics/SVG/1.1/DTD/svg11.dtd">
<svg width="100%" height="100%" viewBox="0 0 196 53" version="1.1" xmlns="http://www.w3.org/2000/svg" xmlns:xlink="http://www.w3.org/1999/xlink" xml:space="preserve" xmlns:serif="http://www.serif.com/" style="fill-rule:evenodd;clip-rule:evenodd;">
    <g transform="matrix(0.24,0,0,0.24,-142.892,-363.496)">
        <g id="logo.svg" transform="matrix(5.2717,0,0,5.2717,1003.27,1623.39)">
            <g transform="matrix(1,0,0,1,-77.373,-20.644)">
                <clipPath id="_clip1">
                    <rect x="0" y="0" width="154.746" height="41.288"/>
                </clipPath>
                <g clip-path="url(#_clip1)">
                    <g id="logo" transform="matrix(1,0,0,1,-110.057,-379)">
                        <g id="manero" transform="matrix(1,0,0,1,110.057,394.08)">
                            <path d="M0,25.92L0,0.288L3.708,0.288L13.392,22.356L11.628,22.356L21.24,0.288L24.948,0.288L24.948,25.92L20.808,25.92L20.772,6.948L22,7.236L14,25.92L10.94,25.92L2.772,7.236L4.072,6.948L4.1,25.92L0,25.92Z" style="fill:rgb(17,17,17);fill-rule:nonzero;"/>
                        </g>
                        <g id="manero-2" transform="matrix(1,0,0,1,110.057,394.08)">
                            <path d="M32.422,25.92L27.742,25.92L39.334,0.288L43.114,0.288L54.706,25.92L50.1,25.92L40.666,3.888L41.926,3.888L32.422,25.92ZM32.854,19.908L34.618,16.308L47.686,16.308L49.378,19.908L32.854,19.908Z" style="fill:rgb(17,17,17);fill-rule:nonzero;"/>
                        </g>
                        <g id="manero-3" transform="matrix(1,0,0,1,110.057,394.08)">
                            <path d="M57.479,25.92L57.479,0.288L60.935,0.288L75.695,19.476L74.723,19.976L74.723,0.288L79.079,0.288L79.079,25.92L75.587,25.92L60.9,6.8L61.836,6.224L61.836,25.92L57.479,25.92Z" style="fill:rgb(17,17,17);fill-rule:nonzero;"/>
                        </g>
                        <g id="manero-4" transform="matrix(1,0,0,1,110.057,394.08)">
                            <path d="M84.655,25.92L84.655,0.288L101.791,0.288L101.791,3.924L89.191,3.924L89.191,11.052L101.071,11.052L101.071,14.724L89.191,14.724L89.191,22.284L101.791,22.284L101.791,25.92L84.655,25.92Z" style="fill:rgb(17,17,17);fill-rule:nonzero;"/>
                        </g>
                        <g id="manero-5" transform="matrix(1,0,0,1,110.057,394.08)">
                            <path d="M106.065,25.92L106.065,0.288L117.045,0.288C119.949,0.288 122.157,0.924 123.669,2.196C125.226,3.572 126.064,5.593 125.937,7.668C126.021,9.729 125.159,11.72 123.597,13.068C121.733,14.486 119.419,15.189 117.081,15.048L119.961,14.472C120.819,14.462 121.656,14.741 122.337,15.264C123.111,15.905 123.686,16.755 123.993,17.712L127.161,25.92L122.261,25.92L119.021,17.388C118.781,16.658 118.263,16.05 117.581,15.696C116.867,15.385 116.092,15.237 115.313,15.264L110.633,15.264L110.633,25.92L106.065,25.92ZM110.6,11.664L116.4,11.664C117.767,11.775 119.134,11.434 120.288,10.692C121.136,9.971 121.591,8.887 121.512,7.776C121.602,6.664 121.145,5.575 120.288,4.86C119.124,4.143 117.762,3.815 116.4,3.924L110.6,3.924L110.6,11.664Z" style="fill:rgb(17,17,17);fill-rule:nonzero;"/>
                        </g>
                        <g id="manero-6" transform="matrix(1,0,0,1,110.057,394.08)">
                            <path d="M142.542,26.208C140.28,26.266 138.042,25.719 136.062,24.624C134.237,23.567 132.769,21.986 131.85,20.088C130.82,17.907 130.314,15.515 130.374,13.104C130.309,10.692 130.814,8.299 131.85,6.12C132.769,4.222 134.237,2.641 136.062,1.584C140.134,-0.528 144.99,-0.528 149.062,1.584C150.886,2.642 152.352,4.222 153.27,6.12C154.303,8.287 154.809,10.668 154.746,13.068C154.809,15.495 154.291,17.902 153.234,20.088C152.315,21.986 150.847,23.567 149.022,24.624C147.044,25.725 144.805,26.272 142.542,26.208ZM142.542,22.536C144.663,22.637 146.714,21.745 148.086,20.124C149.43,18.492 150.102,16.14 150.102,13.068C150.102,9.996 149.43,7.668 148.086,6.084C146.661,4.547 144.656,3.672 142.56,3.672C140.464,3.672 138.459,4.547 137.034,6.084C135.69,7.668 135.018,9.996 135.018,13.068C135.018,16.14 135.69,18.492 137.034,20.124C138.395,21.739 140.432,22.631 142.542,22.536Z" style="fill:rgb(17,17,17);fill-rule:nonzero;"/>
                        </g>
                        <g id="Rectangle_27" transform="matrix(1,0,0,1,178,379)">
                            <path d="M18,2.5C18,1.12 16.88,0 15.5,0L2.5,0C1.12,0 0,1.12 0,2.5C0,3.88 1.12,5 2.5,5L15.5,5C16.88,5 18,3.88 18,2.5Z" style="fill:none;"/>
                            <path d="M17.4,2.5C17.4,1.451 16.549,0.6 15.5,0.6L2.5,0.6C1.451,0.6 0.6,1.451 0.6,2.5C0.6,3.549 1.451,4.4 2.5,4.4L15.5,4.4C16.549,4.4 17.4,3.549 17.4,2.5Z" style="fill:none;stroke:rgb(17,17,17);stroke-width:1.2px;"/>
                        </g>
                    </g>
                </g>
            </g>
        </g>
    </g>
</svg>
